<!DOCTYPE svg PUBLIC "-//W3C//DTD SVG 1.1//EN" "http://www.w3.org/Graphics/SVG/1.1/DTD/svg11.dtd">
<!-- Uploaded to: SVG Repo, www.svgrepo.com, Transformed by: SVG Repo Mixer Tools -->
<svg width="800px" height="800px" viewBox="0 0 32 32" xmlns="http://www.w3.org/2000/svg" fill="#000000">
<g id="SVGRepo_bgCarrier" stroke-width="0"/>
<g id="SVGRepo_tracerCarrier" stroke-linecap="round" stroke-linejoin="round"/>
<g id="SVGRepo_iconCarrier"> <defs> <style>.cls-1{fill:none;}.cls-2{fill:#0C121E;}.cls-3{fill:#0C121E;}</style> </defs> <title/> <g id="favorite"> <rect class="cls-1" height="32" id="bg" width="32" x="0.01" y="-0.24"/> <path class="cls-2" d="M25.89,30.68,16,25,6.14,30.68V4.55a3,3,0,0,1,3-3H22.89a3,3,0,0,1,3,3ZM9.14,3.55a1,1,0,0,0-1,1V27.23L16,22.72l7.88,4.51V4.55a1,1,0,0,0-1-1Z"/> <path class="cls-3" d="M9.14,2.55H22.89a2,2,0,0,1,2,2V8.62a0,0,0,0,1,0,0H7.14a0,0,0,0,1,0,0V4.55A2,2,0,0,1,9.14,2.55Z"/> <path class="cls-2" d="M25.89,9.62H6.14V4.55a3,3,0,0,1,3-3H22.89a3,3,0,0,1,3,3Zm-17.75-2H23.89V4.55a1,1,0,0,0-1-1H9.14a1,1,0,0,0-1,1Z"/> <path class="cls-2" d="M16,20.25a1,1,0,0,1-1-1V14.07a1,1,0,0,1,2,0v5.18A1,1,0,0,1,16,20.25Z"/> <path class="cls-2" d="M18.6,17.66H13.42a1,1,0,1,1,0-2H18.6a1,1,0,0,1,0,2Z"/> </g> </g>
</svg>