<?xml version="1.0" standalone="no"?>
<!DOCTYPE svg PUBLIC "-//W3C//DTD SVG 20010904//EN"
 "http://www.w3.org/TR/2001/REC-SVG-20010904/DTD/svg10.dtd">
<svg version="1.0" xmlns="http://www.w3.org/2000/svg"
 width="225.000000pt" height="225.000000pt" viewBox="0 0 225.000000 225.000000"
 preserveAspectRatio="xMidYMid meet">
<metadata>
Created by potrace 1.10, written by Peter Selinger 2001-2011
</metadata>
<g transform="translate(0.000000,225.000000) scale(0.100000,-0.100000)"
fill="#000000" stroke="none">
<path d="M1740 1265 l-23 -25 29 0 c26 1 74 29 74 44 0 17 -59 3 -80 -19z"/>
<path d="M1241 1217 c-48 -17 -74 -56 -74 -112 0 -56 26 -94 78 -114 32 -13
43 -13 78 0 22 8 42 19 44 26 6 17 -36 38 -50 24 -34 -34 -97 7 -97 64 0 58
63 98 98 63 10 -10 17 -7 34 10 l22 21 -37 16 c-43 18 -51 18 -96 2z"/>
<path d="M1915 1218 c-30 -16 -45 -39 -45 -69 0 -31 14 -44 66 -63 27 -9 39
-19 39 -32 0 -23 -39 -31 -61 -13 -12 10 -19 8 -36 -9 l-22 -21 37 -16 c20 -8
43 -15 52 -15 30 0 75 30 81 54 11 44 0 60 -53 86 -54 26 -60 36 -30 54 12 8
22 8 36 -1 15 -10 22 -9 35 6 22 24 21 27 -15 40 -39 14 -58 13 -84 -1z"/>
<path d="M220 1105 l0 -115 25 0 25 0 0 115 0 115 -25 0 -25 0 0 -115z"/>
<path d="M310 1105 l0 -115 31 0 32 0 -6 80 c-6 75 2 103 17 63 4 -10 24 -46
44 -80 34 -58 40 -63 72 -63 l35 0 0 115 0 115 -29 0 -29 0 6 -80 c3 -44 2
-78 -3 -75 -4 2 -27 38 -51 80 -41 73 -44 75 -81 75 l-38 0 0 -115z"/>
<path d="M560 1196 c0 -20 5 -24 31 -22 l31 1 -1 -92 -2 -93 28 0 28 0 -3 96
-3 96 35 -6 c34 -6 36 -5 36 19 0 25 0 25 -90 25 -88 0 -90 0 -90 -24z"/>
<path d="M765 1105 l0 -115 83 0 c82 0 82 0 82 26 0 25 -1 26 -57 22 -56 -3
-58 -2 -58 22 0 23 3 24 53 21 50 -2 52 -1 52 23 0 25 -3 26 -56 26 -51 0 -55
2 -52 22 3 20 8 22 54 19 48 -2 52 -1 56 23 l5 26 -81 0 -81 0 0 -115z"/>
<path d="M970 1105 l0 -115 25 0 c23 0 25 4 25 45 0 30 4 45 13 45 7 0 23 -20
35 -45 19 -39 26 -45 52 -45 30 0 30 0 16 28 -8 15 -21 36 -29 47 -13 17 -13
20 7 30 15 8 22 21 24 52 4 56 -21 73 -105 73 l-63 0 0 -115z m104 69 c21 -8
21 -40 0 -48 -37 -14 -54 -7 -54 24 0 31 17 38 54 24z"/>
<path d="M1400 1105 l0 -115 25 0 25 0 0 115 0 115 -25 0 -25 0 0 -115z"/>
<path d="M1470 1195 c0 -24 2 -25 36 -19 l35 6 -3 -96 -3 -96 28 0 28 0 -2 93
-2 92 32 -1 c26 -1 31 3 31 23 0 22 -2 23 -90 23 -90 0 -90 0 -90 -25z"/>
<path d="M1680 1105 l0 -115 80 0 c80 0 80 0 80 26 0 26 -1 27 -55 21 -53 -5
-55 -5 -55 19 0 22 4 24 50 24 47 0 50 2 50 25 0 23 -3 25 -50 25 -43 0 -50 3
-50 20 0 18 7 20 55 20 52 0 55 1 55 25 0 25 -1 25 -80 25 l-80 0 0 -115z"/>
</g>
</svg>
