<?xml version="1.0" encoding="UTF-8"?>
<svg width="189.1" height="50.56" version="1.1" xmlns="http://www.w3.org/2000/svg">
<title>TGV logo</title>
 <g transform="translate(-103 -388.2)">
  <path d="m104.5 395.2c133.3-21.95 121.8 15.23 136.7 24.12 6.105 0.9825 31.32-28.73 50.13-25.53 3.16 0.4697-8.199 5.879-21.51 15.76-3.037 2.254-6.579 4.361-9.275 7.423-8.289 9.414-15.85 15.52-21.79 19.49-2.266 1.992-4.564 1.042-6.633-0.9725-5.958-7.404-9.243-19.91-17.99-25.78-11.63-7.8-24.76-8.549-39.77-1.299-27.5 19.41 13.02 30.68 23.9 14.62 2.117-8.109-7.495-5.955-15.09-5.57 2.502-9.629 20.84-7.71 25.06-5.106 7.689 39.04-91.83 33.25-43.86-9.979-9.87-2.14-19.09 0.8226-24.64 8.746-18.38 26.28-19.69 27.23-21.55 26.07-3.276 0.2464-3.354-2.922-1.526-7.294 3.144-7.518 13.7-21.48 10.35-23.8-1.573-1.523-4.035-2.654-6.813-2.243-5.788 0.8565-11.18 1.613-14.31 0.1546-3.341-3.128-3.407-6.037-1.351-8.806z" style="fill-rule:evenodd;fill:#808080;stroke-width:.4219px;stroke:#000"/>
 </g>
</svg>
